#!OML:ASF F:\VICON\USERDATA\INSTALL\rory3\rory3.ASF
:FULLY-SPECIFIED
:DEGREES
37
root 0.6717252497145222 17.979028553049943 13.900883933984954 -4.545745021960685 -0.6537564905573422 0.11897604097309644
lfemur 0.2824641849389913 -5.986051478943917 -24.6009899369695
ltibia 23.516408105713623
lfoot 12.625495532485154 -15.16695494876419
ltoes -5.130596128436423
rfemur -26.01648524801626 -5.4382047079886355 20.763119598778516
rtibia 75.53813392794956
rfoot -0.19116934256393314 -2.0660178614271167
rtoes 11.231617893352595
lowerback 1.0 -1.1652500676388848 -2.3512309641541393
upperback 0.889076659553876 -0.35778536467377287 0.7440161307984722
thorax -4.648578637276429 -0.1064049478216692 2.729607062027421
lowerneck -15.430350136244204 -2.2700640000338805 -1.7587864370247988
upperneck 24.578411255292412 -2.9135568559826863 -1.3058901585710294
head 10.480395843540343 -1.6181918292995119 -0.5670104201064357
lclavicle 4.007406942894982e-15 2.8452682423385597e-15
lhumerus -30.340493926694414 3.5143705009407062 81.33984571456669
lradius 22.419325178825126
lwrist 5.175354238213835
lhand -28.462335101571025 28.626842054538507
lfingers nan
lthumb -1.7825306500769513 58.76540954816232
rclavicle 4.258416008867503e-15 4.294544587081627e-15
rhumerus -36.521530924122956 -34.85328860190258 -66.71097285237975
rradius 20.116779733508686
rwrist 13.687026167586986
rhand -18.348857094085865 1.0
rfingers nan
rthumb 7.959899480117786 -5.512646350389746
38
root 0.6608436710015329 17.943292332139972 14.622402227810156 -4.187185476305874 0.04790182082685268 0.5272921036129197
lfemur 2.1713961880593207 -6.768913378635818 -24.764806431387843
ltibia 23.201818655191268
lfoot 12.28546116573807 -14.693393730802367
ltoes -4.912118239031215
rfemur -27.452955680198848 -5.421268661963653 21.32367332350971
rtibia 69.50208824290522
rfoot -2.665472232294017 -2.4107066668928328
rtoes 6.342209046481456
lowerback 1.0 -1.5852262365683034 -2.6198234458050473
upperback 1.0827871389430244 -0.9025831452399371 1.015213618896271
thorax -4.332816961059882 -0.42983316615978123 3.3060015352251515
lowerneck -15.688984222282368 -2.294881304820057 -1.8099239516390058
upperneck 24.439081317570256 -2.9479278069006223 -1.3937675198071011
head 10.493705642316412 -1.6506607307535242 -0.606006579787484
lclavicle 2.087512280538463e-14 2.0969016642300616e-14
lhumerus -28.470199429579065 2.1893401455325088 81.51777937433894
lradius 23.452731197009676
lwrist 6.016511554074048
lhand -27.11868566678995 29.349601684423806
lfingers nan
lthumb -0.4597548792950948 59.46039930900839
rclavicle 2.1292944879791586e-14 2.2201480341224714e-14
rhumerus -37.40744463836012 -34.870687710200464 -66.18898263325525
rradius 20.32344725123143
rwrist 13.175493888580917
rhand -19.235076252523477 1.0
rfingers nan
rthumb 7.119446231847119 -5.908472959156119
39
root 0.6450947102575165 17.92592372760387 15.486605277123928 -3.735680535530511 0.2437807831572134 0.9588307718544318
lfemur 4.729113163035022 -6.86975878072563 -25.033313909053053
ltibia 22.63792913703351
lfoot 11.311139167055607 -13.569969756929382
ltoes -5.909404860895165
rfemur -28.118004888419414 -4.331438997845476 21.348070056814922
rtibia 60.494400214268964
rfoot -2.773223715482132 -4.019112437682772
rtoes 6.5984612536728235
lowerback 1.0 -1.7022520629866225 -3.2757262789130106
upperback 1.1037669419440692 -1.104290011927148 1.236694782025428
thorax -4.252722957000804 -0.5635519841023424 3.9376941564535457
lowerneck -15.821300273834218 -2.2497689093842044 -2.0712047278603034
upperneck 24.334331633171704 -2.935304805538415 -1.1082723321815335
head 10.53040204000461 -1.62633316358938 -0.4774241347450603
lclavicle -2.33262128219188e-15 1.957297409920762e-14
lhumerus -26.415813896062087 0.973576976996382 81.6265643728671
lradius 23.76852247401964
lwrist 6.989596594348759
lhand -28.715244723731402 28.81222809944082
lfingers nan
lthumb -2.032510763209328 58.89454324197331
rclavicle -1.90273878688315e-15 2.0743246864550286e-14
rhumerus -38.48372199852371 -35.79375081989855 -65.19584213861025
rradius 20.154568345842733
rwrist 13.929329606976882
rhand -19.42603301878732 1.0
rfingers nan
rthumb 6.934165966205617 -5.769787292225495
40
root 0.6190398022817422 17.92432661446341 16.105208375658037 -3.019693489712453 0.34322857418177843 0.9780677573959182
lfemur 7.413329260999353 -6.942870748940103 -24.76196655555106
ltibia 19.994776565414362
lfoot 10.642608347462854 -13.933596214488343
ltoes -9.154767999231913
rfemur -28.1857232343651 -2.5800751491061256 21.41613557710859
rtibia 48.573630833635576
rfoot 0.30299351105266226 -6.108126251207178
rtoes 4.360721453916914
lowerback 1.0 -1.8278104589639592 -3.1276877991131333
upperback 1.0399735090780589 -1.2121306773397957 1.253625400649213
thorax -3.9995104977588083 -0.6771065755217407 3.8964873620921177
lowerneck -15.81913570638536 -2.2934322690589486 -1.7401781927204423
upperneck 24.18587966074021 -3.1368143947374074 -1.170969030789977
head 10.464763095320198 -1.6904544963701653 -0.5697631254718812
lclavicle -1.5425090842522825e-14 6.397862628531535e-15
lhumerus -25.297645474342154 -0.06826231131710347 81.31317687100068
lradius 25.484212147128563
lwrist 7.036723928945899
lhand -29.516419051480113 26.823802286218655
lfingers nan
lthumb -2.7978961191631093 56.94488784649978
rclavicle -1.5132799219151225e-14 7.378607711237048e-15
rhumerus -39.28515247911876 -36.823959837763404 -64.48702055889622
rradius 19.801913528806963
rwrist 14.214125694706375
rhand -20.573878489251616 1.0
rfingers nan
rthumb 5.775840437888013 -8.71054212438669
41
root 0.5962616004056469 17.90471244401072 15.924218873792645 -2.496072884791736 0.3080275923960454 1.2557079522571701
lfemur 10.233489084618094 -6.637100620770587 -24.990979641574757
ltibia 16.698343287479275
lfoot 10.840245659423243 -13.770446706235077
ltoes -5.678431193612214
rfemur -27.129079309238186 1.2140630192131203 19.785416508428415
rtibia 35.37877988685307
rfoot -0.44830302491611107 -7.907812342856915
rtoes 13.191063634662306
lowerback 1.0 -1.8516412063517973 -3.5611203042903083
upperback 0.9197629084378725 -1.3521453667589338 1.3288078504323728
thorax -3.8273208719173035 -0.7196917013283699 4.213631575211547
lowerneck -15.93072587261664 -2.161262735990845 -1.9110888151601362
upperneck 24.392812674453058 -2.9468982158488974 -1.0611597398396455
head 10.605263874082096 -1.6184824598915224 -0.49453597338552874
lclavicle -1.4978886407423498e-14 2.285219731198843e-14
lhumerus -23.991342077420413 -0.29029490246198897 81.02833235945124
lradius 26.35084395359025
lwrist 8.262419373620538
lhand -32.944802685736484 23.330475447422767
lfingers nan
lthumb -6.085397806247062 53.476722820351775
rclavicle -1.4643343402494677e-14 2.3799050613553562e-14
rhumerus -40.12943163502162 -37.64170022397285 -63.510199380501035
rradius 19.06823039822638
rwrist 14.405114960580987
rhand -19.42399490595865 1.0
rfingers nan
rthumb 6.890674088716179 -7.4742512905886365
42
root 0.567625344110409 17.854000804570465 17.478936787210408 -1.7721389192073052 0.5959759058166016 1.0808090038433393
lfemur 12.221433288979393 -5.617782609271763 -24.370344606643346
ltibia 14.484360980836232
lfoot 10.741707166917848 -14.394186719966996
ltoes -6.991675100692545
rfemur -25.933644117608203 5.305259828810696 18.25284212828868
rtibia 22.10828347511808
rfoot -2.1547966781559253 -10.068409418409596
rtoes 10.579522031289589
lowerback 1.0 -2.037919646797049 -3.3654832199786364
upperback 0.7052773351039773 -1.6373261409415485 1.495194592593476
thorax -3.69660385096655 -0.8323523383111211 4.29352405078154
lowerneck -15.802209336813155 -2.2315583348138226 -1.918598016707144
upperneck 24.26186522310803 -3.0367495024807774 -1.1962636607688328
head 10.511549484046634 -1.6795177394082408 -0.5450048975487186
lclavicle 1.9298647708096112e-14 2.71453587483922e-14
lhumerus -23.057352204499274 -0.228981164983602 80.62756094286463
lradius 27.320962277761247
lwrist 9.397180139730724
lhand -34.51701702249289 19.769785984632534
lfingers nan
lthumb -7.623458368786595 49.87969087148412
rclavicle 1.8733593253197355e-14 2.7538180738817325e-14
rhumerus -40.987488507109994 -39.980020030209246 -61.715625864383526
rradius 17.429743248336997
rwrist 17.22082672016485
rhand -19.325371621716496 1.0
rfingers nan
rthumb 6.965262761235213 -6.474611244654633
43
root 0.5310843097311077 17.80780911508615 17.52458103691331 -1.5005406473834453 1.2132231119822967 1.4550582765300337
lfemur 14.783630932093343 -6.28228207900424 -24.53418782246439
ltibia 12.532084348573214
lfoot 11.077382732625647 -14.496052520896846
ltoes -9.36769814583341
rfemur -24.857810839243378 9.121821998962478 16.085114299589982
rtibia 14.946223742693
rfoot -4.398076627644341 -10.770902619058889
rtoes 4.471427623613663
lowerback 1.0 -2.1605517614356975 -3.399999338104289
upperback 0.37880670959965546 -2.006517297653149 1.5331227673529635
thorax -4.019434524482544 -0.9277111044714172 4.483419916664587
lowerneck -15.874732764549524 -2.159838193593696 -1.9589174546769956
upperneck 24.658401175204656 -2.8797405638464113 -1.279129806471933
head 10.69706598756205 -1.6433292652237734 -0.5646834861629941
lclavicle -3.543479463234273e-14 2.6724730164396207e-14
lhumerus -22.863172020651902 -0.01109555267201845 80.45765809945568
lradius 27.95094361830676
lwrist 9.036337770007986
lhand -34.36597403225903 20.258625755285678
lfingers nan
lthumb -7.508561143670805 50.36573384399374
rclavicle -3.6150635025754486e-14 2.7265920591661055e-14
rhumerus -42.604572484015506 -40.926184086919406 -60.41436461666908
rradius 16.822425012462062
rwrist 17.784661979995835
rhand -19.471497816854868 1.0
rfingers nan
rthumb 6.801266048513109 -6.543456834488144
44
root 0.4741452825713808 17.733544393844202 18.207408803720178 -1.5613409978642627 1.1185423354427713 1.43770214770315
lfemur 15.428849517234303 -7.1960321569137475 -24.60144914663819
ltibia 13.554349318153253
lfoot 11.207918087449539 -14.863844565531465
ltoes -12.564669508897076
rfemur -25.659086218568522 4.197512028947355 18.575385189968216
rtibia 18.135685540354654
rfoot -2.364008420335873 -5.4943060894172895
rtoes 5.730452731033041
lowerback 1.0 -2.0508518210351134 -3.2600346723533304
upperback 0.4935705101134586 -1.974675888645264 1.6145825893626127
thorax -3.913273060892698 -0.8885296461511545 4.485091536830336
lowerneck -16.071336680634722 -2.1087963104262677 -1.898831659350766
upperneck 24.554588995550986 -2.8146889473508607 -1.3535032059725272
head 10.693044450230778 -1.6228203795815956 -0.5923710825063065
lclavicle 1.9123694116047856e-14 1.7275756171084285e-14
lhumerus -22.3139570801366 0.6747007293488636 80.32732357696973
lradius 28.11509576126777
lwrist 8.139531851701019
lhand -34.77839972649849 17.86887808846273
lfingers nan
lthumb -7.915078552489103 47.96134919768028
rclavicle 1.810768770149e-14 1.7470562731347124e-14
rhumerus -43.469058858577775 -42.37458675394308 -59.278473546257025
rradius 16.232265250784565
rwrist 20.414001058147683
rhand -19.58948175865782 1.0
rfingers nan
rthumb 6.6594076550836725 -7.161888352005173
